<?xml version="1.0" standalone="no"?>
<!DOCTYPE svg PUBLIC "-//W3C//DTD SVG 20010904//EN"
 "http://www.w3.org/TR/2001/REC-SVG-20010904/DTD/svg10.dtd">
<svg version="1.0" xmlns="http://www.w3.org/2000/svg"
 width="100.000000pt" height="100.000000pt" viewBox="0 0 100.000000 100.000000"
 preserveAspectRatio="xMidYMid meet">

<g transform="translate(0.000000,100.000000) scale(0.100000,-0.100000)"
fill="#000000" stroke="none">
<path d="M467 945 c-190 -53 -333 -211 -360 -397 -8 -59 -7 -88 6 -153 25
-118 106 -269 135 -251 8 5 12 39 12 94 0 153 18 174 44 52 19 -84 16 -134
-11 -198 -10 -24 -11 -38 -4 -45 18 -18 139 10 229 53 l84 40 140 -51 c84 -29
145 -46 150 -41 5 5 -7 49 -30 108 l-40 99 32 3 c17 2 35 7 39 11 11 11 -79
237 -115 289 -16 23 -40 50 -54 59 l-25 16 98 99 c82 83 96 101 87 115 -17 28
-140 90 -202 102 -55 11 -56 11 -88 -20 l-32 -31 -4 28 c-4 35 -22 38 -91 19z
m65 -120 c6 -7 25 8 57 44 l48 53 59 -17 c59 -17 144 -61 144 -74 0 -4 -24
-31 -54 -60 l-54 -53 -49 18 c-33 13 -74 19 -128 19 -71 0 -89 -4 -147 -33
-124 -61 -201 -177 -202 -307 0 -38 3 -97 7 -130 l8 -60 -25 46 c-56 104 -70
237 -36 340 27 79 56 123 122 185 61 58 98 80 178 105 l55 17 3 -42 c2 -22 8
-45 14 -51z m142 -124 c26 -10 28 -14 15 -27 -13 -12 -26 -13 -85 -3 -59 10
-77 10 -127 -5 -76 -22 -159 -99 -178 -166 -7 -25 -23 -61 -36 -80 l-23 -35 0
31 c0 118 93 243 214 286 56 20 168 20 220 -1z m-29 -80 c22 -10 53 -31 69
-47 28 -28 66 -83 66 -95 0 -4 -21 -12 -46 -18 -47 -12 -104 -58 -104 -83 0
-26 56 -69 97 -75 39 -5 39 -5 76 -100 21 -53 35 -98 33 -101 -3 -2 -57 14
-120 36 l-115 41 -83 -39 c-70 -34 -176 -65 -186 -56 -1 2 2 15 8 30 15 40 12
153 -5 210 -18 59 -19 105 -4 157 37 123 197 194 314 140z m151 -199 c6 -4 18
-27 28 -52 10 -25 20 -51 23 -57 3 -8 -4 -13 -20 -13 -16 0 -26 7 -30 20 -4
16 -14 20 -44 20 -77 0 -96 47 -31 75 37 16 58 18 74 7z"/>
</g>
</svg>
