<?xml version="1.0" standalone="no"?>
<!DOCTYPE svg PUBLIC "-//W3C//DTD SVG 20010904//EN"
 "http://www.w3.org/TR/2001/REC-SVG-20010904/DTD/svg10.dtd">
<svg version="1.0" xmlns="http://www.w3.org/2000/svg"
 width="100.000000pt" height="100.000000pt" viewBox="0 0 100.000000 100.000000"
 preserveAspectRatio="xMidYMid meet">

<g transform="translate(0.000000,100.000000) scale(0.100000,-0.100000)"
fill="#000000" stroke="none">
<path d="M467 945 c-190 -53 -333 -211 -360 -397 -13 -90 7 -202 53 -293 74
-149 107 -150 95 -3 -15 184 -12 238 17 293 58 112 177 181 298 172 36 -2 87
-14 115 -26 l49 -22 78 78 c43 43 78 83 78 90 0 28 -125 94 -214 113 -48 11
-50 10 -82 -21 l-32 -31 -4 28 c-4 35 -22 38 -91 19z"/>
<path d="M469 665 c-69 -22 -143 -93 -168 -161 -26 -68 -26 -91 0 -200 22 -94
20 -145 -7 -211 -11 -24 -12 -39 -5 -46 18 -18 139 10 229 53 l84 40 140 -51
c83 -29 145 -46 150 -41 5 5 -13 63 -43 140 l-52 132 -39 0 c-105 0 -139 73
-54 114 71 33 87 23 127 -85 30 -81 48 -104 63 -80 10 16 -85 248 -123 296
-71 94 -195 134 -302 100z"/>
</g>
</svg>
